<svg xmlns="http://www.w3.org/2000/svg" viewBox="0 0 85 85" style="display: none">
                  <symbol id="apple-music-logo" viewBox="0 0 417 100">
                     <path d="M70.24,95.97c-5.42,5.26-11.41,4.44-17.11,1.96c-6.06-2.53-11.61-2.69-18.01,0c-7.98,3.44-12.21,2.44-17.01-1.96 C-9.02,68.05-5.02,25.52,25.8,23.92c7.48,0.4,12.71,4.13,17.11,4.44c6.54-1.33,12.81-5.14,19.82-4.64c8.42,0.68,14.71,4,18.91,9.98 C64.33,44.1,68.44,66.92,84.34,73.33c-3.18,8.36-7.27,16.61-14.11,22.72L70.24,95.97z M42.32,23.62C41.51,11.21,51.56,1,63.13,0 C64.72,14.31,50.12,25.02,42.32,23.62z M97.95,98.56h13V30.71h0.45l27.71,67.85h10.58l27.71-67.85h0.45v67.85h13V6.62H174.4 l-29.82,73.39h-0.38L114.45,6.62h-16.5V98.56z M226.79,100c10.19,0,17.01-4.65,20.51-11.4h0.32v10.07h13.83V31.64h-13.83v39.12 c0,10.45-6.24,17.39-15.93,17.39c-9.56,0-14.27-5.61-14.27-15.74V31.64h-13.76v43.45C203.66,90.51,212.07,100,226.79,100L226.79,100 z M297.48,100c15.77,0,27.22-8.39,27.22-20.6v-0.06c0-9.6-5.21-15.01-18.89-18.19l-10.87-2.48c-7.19-1.72-9.92-4.51-9.92-8.65v-0.06 c0-5.34,4.64-8.84,12.02-8.84c7.76,0,12.34,4.07,13.16,9.92l0.06,0.45h12.91l-0.06-0.76c-0.7-11.38-10.24-20.22-26.07-20.22 c-15.39,0-25.82,8.2-25.82,20.16v0.06c0,9.73,6.3,15.83,19.01,18.76l10.94,2.48c7.19,1.72,9.6,4.2,9.6,8.52v0.06 c0,5.41-4.96,8.84-13.23,8.84c-8.46,0-13.04-3.62-14.31-9.79l-0.13-0.64H269.5l0.06,0.57C270.96,91.73,280.76,100,297.48,100 L297.48,100z M340.56,20.89c4.54,0,8.05-3.58,8.05-7.92c0-4.41-3.51-7.99-8.05-7.99c-4.47,0-8.05,3.58-8.05,7.99 C332.51,17.31,336.09,20.89,340.56,20.89z M333.66,98.46h13.8V31.24h-13.8V98.46z M387.57,100c16.09,0,27.29-10.3,28.75-23.73 l0.06-0.45h-13.23l-0.06,0.51c-1.65,7.25-7.06,12.15-15.52,12.15c-10.62,0-17.68-8.59-17.68-23.22v-0.06 c0-14.31,6.93-23.22,17.62-23.22c8.97,0,14.06,5.53,15.52,12.09l0.13,0.51h13.1l-0.06-0.45c-1.14-12.59-11.58-23.66-28.81-23.66 c-19.08,0-31.55,13.42-31.55,34.6v0.06C355.83,86.58,368.04,100,387.57,100L387.57,100z"/>
                  </symbol>
               </svg>